<mxfile host="Electron" modified="2024-01-04T10:27:50.209Z" agent="Mozilla/5.0 (Windows NT 10.0; Win64; x64) AppleWebKit/537.36 (KHTML, like Gecko) draw.io/22.1.16 Chrome/120.0.6099.109 Electron/28.1.0 Safari/537.36" etag="8CI36--M3Q6T1XsRMnIS" version="22.1.16" type="device">
  <diagram id="R2lEEEUBdFMjLlhIrx00" name="Page-1">
    <mxGraphModel dx="2564" dy="1843" grid="1" gridSize="10" guides="1" tooltips="1" connect="1" arrows="1" fold="1" page="1" pageScale="1" pageWidth="850" pageHeight="1100" math="0" shadow="0" extFonts="Permanent Marker^https://fonts.googleapis.com/css?family=Permanent+Marker">
      <root>
        <mxCell id="0" />
        <mxCell id="1" parent="0" />
        <mxCell id="kVk2CVBrEdljPfK9iVD8-3" value="员工编号" style="ellipse;whiteSpace=wrap;html=1;" vertex="1" parent="1">
          <mxGeometry x="-1390" y="-680" width="70" height="40" as="geometry" />
        </mxCell>
        <mxCell id="kVk2CVBrEdljPfK9iVD8-12" style="edgeStyle=none;shape=connector;rounded=0;orthogonalLoop=1;jettySize=auto;html=1;exitX=1;exitY=0.5;exitDx=0;exitDy=0;entryX=0;entryY=0.25;entryDx=0;entryDy=0;labelBackgroundColor=default;strokeColor=default;align=center;verticalAlign=middle;fontFamily=Helvetica;fontSize=11;fontColor=default;endArrow=none;" edge="1" parent="1" source="kVk2CVBrEdljPfK9iVD8-4" target="kVk2CVBrEdljPfK9iVD8-7">
          <mxGeometry relative="1" as="geometry" />
        </mxCell>
        <mxCell id="kVk2CVBrEdljPfK9iVD8-4" value="员工姓名" style="ellipse;whiteSpace=wrap;html=1;" vertex="1" parent="1">
          <mxGeometry x="-1410" y="-620" width="70" height="40" as="geometry" />
        </mxCell>
        <mxCell id="kVk2CVBrEdljPfK9iVD8-11" style="edgeStyle=none;shape=connector;rounded=0;orthogonalLoop=1;jettySize=auto;html=1;exitX=1;exitY=0.5;exitDx=0;exitDy=0;entryX=0;entryY=0.5;entryDx=0;entryDy=0;labelBackgroundColor=default;strokeColor=default;align=center;verticalAlign=middle;fontFamily=Helvetica;fontSize=11;fontColor=default;endArrow=none;" edge="1" parent="1" source="kVk2CVBrEdljPfK9iVD8-5" target="kVk2CVBrEdljPfK9iVD8-7">
          <mxGeometry relative="1" as="geometry" />
        </mxCell>
        <mxCell id="kVk2CVBrEdljPfK9iVD8-5" value="员工性别" style="ellipse;whiteSpace=wrap;html=1;" vertex="1" parent="1">
          <mxGeometry x="-1410" y="-560" width="70" height="40" as="geometry" />
        </mxCell>
        <mxCell id="kVk2CVBrEdljPfK9iVD8-15" style="edgeStyle=none;shape=connector;rounded=0;orthogonalLoop=1;jettySize=auto;html=1;exitX=0.5;exitY=1;exitDx=0;exitDy=0;labelBackgroundColor=default;strokeColor=default;align=center;verticalAlign=middle;fontFamily=Helvetica;fontSize=11;fontColor=default;endArrow=none;" edge="1" parent="1" source="kVk2CVBrEdljPfK9iVD8-6" target="kVk2CVBrEdljPfK9iVD8-7">
          <mxGeometry relative="1" as="geometry" />
        </mxCell>
        <mxCell id="kVk2CVBrEdljPfK9iVD8-6" value="员工年龄" style="ellipse;whiteSpace=wrap;html=1;" vertex="1" parent="1">
          <mxGeometry x="-1090" y="-760" width="70" height="40" as="geometry" />
        </mxCell>
        <mxCell id="kVk2CVBrEdljPfK9iVD8-89" style="edgeStyle=none;shape=connector;rounded=0;orthogonalLoop=1;jettySize=auto;html=1;exitX=0.5;exitY=1;exitDx=0;exitDy=0;entryX=0.5;entryY=0;entryDx=0;entryDy=0;labelBackgroundColor=default;strokeColor=default;align=center;verticalAlign=middle;fontFamily=Helvetica;fontSize=11;fontColor=default;endArrow=none;" edge="1" parent="1" source="kVk2CVBrEdljPfK9iVD8-7" target="kVk2CVBrEdljPfK9iVD8-88">
          <mxGeometry relative="1" as="geometry" />
        </mxCell>
        <mxCell id="kVk2CVBrEdljPfK9iVD8-96" style="edgeStyle=none;shape=connector;rounded=0;orthogonalLoop=1;jettySize=auto;html=1;exitX=1;exitY=0.5;exitDx=0;exitDy=0;entryX=0;entryY=0.5;entryDx=0;entryDy=0;labelBackgroundColor=default;strokeColor=default;align=center;verticalAlign=middle;fontFamily=Helvetica;fontSize=11;fontColor=default;endArrow=none;" edge="1" parent="1" source="kVk2CVBrEdljPfK9iVD8-7" target="kVk2CVBrEdljPfK9iVD8-95">
          <mxGeometry relative="1" as="geometry" />
        </mxCell>
        <mxCell id="kVk2CVBrEdljPfK9iVD8-7" value="员工" style="rounded=1;whiteSpace=wrap;html=1;" vertex="1" parent="1">
          <mxGeometry x="-1240" y="-570" width="120" height="60" as="geometry" />
        </mxCell>
        <mxCell id="kVk2CVBrEdljPfK9iVD8-8" value="员工年龄" style="ellipse;whiteSpace=wrap;html=1;" vertex="1" parent="1">
          <mxGeometry x="-1030" y="-700" width="70" height="40" as="geometry" />
        </mxCell>
        <mxCell id="kVk2CVBrEdljPfK9iVD8-13" style="edgeStyle=none;shape=connector;rounded=0;orthogonalLoop=1;jettySize=auto;html=1;exitX=1;exitY=0.5;exitDx=0;exitDy=0;entryX=0.098;entryY=-0.016;entryDx=0;entryDy=0;entryPerimeter=0;labelBackgroundColor=default;strokeColor=default;align=center;verticalAlign=middle;fontFamily=Helvetica;fontSize=11;fontColor=default;endArrow=none;" edge="1" parent="1" source="kVk2CVBrEdljPfK9iVD8-3" target="kVk2CVBrEdljPfK9iVD8-7">
          <mxGeometry relative="1" as="geometry" />
        </mxCell>
        <mxCell id="kVk2CVBrEdljPfK9iVD8-16" style="edgeStyle=none;shape=connector;rounded=0;orthogonalLoop=1;jettySize=auto;html=1;exitX=0.5;exitY=1;exitDx=0;exitDy=0;entryX=0.82;entryY=0.009;entryDx=0;entryDy=0;entryPerimeter=0;labelBackgroundColor=default;strokeColor=default;align=center;verticalAlign=middle;fontFamily=Helvetica;fontSize=11;fontColor=default;endArrow=none;" edge="1" parent="1" source="kVk2CVBrEdljPfK9iVD8-8" target="kVk2CVBrEdljPfK9iVD8-7">
          <mxGeometry relative="1" as="geometry" />
        </mxCell>
        <mxCell id="kVk2CVBrEdljPfK9iVD8-24" style="edgeStyle=none;shape=connector;rounded=0;orthogonalLoop=1;jettySize=auto;html=1;exitX=0.5;exitY=1;exitDx=0;exitDy=0;entryX=1;entryY=0.25;entryDx=0;entryDy=0;labelBackgroundColor=default;strokeColor=default;align=center;verticalAlign=middle;fontFamily=Helvetica;fontSize=11;fontColor=default;endArrow=none;" edge="1" parent="1" source="kVk2CVBrEdljPfK9iVD8-17" target="kVk2CVBrEdljPfK9iVD8-7">
          <mxGeometry relative="1" as="geometry" />
        </mxCell>
        <mxCell id="kVk2CVBrEdljPfK9iVD8-17" value="电话" style="ellipse;whiteSpace=wrap;html=1;" vertex="1" parent="1">
          <mxGeometry x="-1030" y="-620" width="70" height="40" as="geometry" />
        </mxCell>
        <mxCell id="kVk2CVBrEdljPfK9iVD8-22" style="edgeStyle=none;shape=connector;rounded=0;orthogonalLoop=1;jettySize=auto;html=1;exitX=0.5;exitY=1;exitDx=0;exitDy=0;entryX=1;entryY=0.5;entryDx=0;entryDy=0;labelBackgroundColor=default;strokeColor=default;align=center;verticalAlign=middle;fontFamily=Helvetica;fontSize=11;fontColor=default;endArrow=none;" edge="1" parent="1" source="kVk2CVBrEdljPfK9iVD8-18" target="kVk2CVBrEdljPfK9iVD8-7">
          <mxGeometry relative="1" as="geometry" />
        </mxCell>
        <mxCell id="kVk2CVBrEdljPfK9iVD8-18" value="身份证号" style="ellipse;whiteSpace=wrap;html=1;" vertex="1" parent="1">
          <mxGeometry x="-1110" y="-470" width="70" height="40" as="geometry" />
        </mxCell>
        <mxCell id="kVk2CVBrEdljPfK9iVD8-19" value="所属部门" style="ellipse;whiteSpace=wrap;html=1;" vertex="1" parent="1">
          <mxGeometry x="-1330" y="-450" width="70" height="40" as="geometry" />
        </mxCell>
        <mxCell id="kVk2CVBrEdljPfK9iVD8-25" style="edgeStyle=none;shape=connector;rounded=0;orthogonalLoop=1;jettySize=auto;html=1;exitX=1;exitY=0.5;exitDx=0;exitDy=0;labelBackgroundColor=default;strokeColor=default;align=center;verticalAlign=middle;fontFamily=Helvetica;fontSize=11;fontColor=default;endArrow=none;" edge="1" parent="1" source="kVk2CVBrEdljPfK9iVD8-20">
          <mxGeometry relative="1" as="geometry">
            <mxPoint x="-1240" y="-520" as="targetPoint" />
          </mxGeometry>
        </mxCell>
        <mxCell id="kVk2CVBrEdljPfK9iVD8-20" value="工资" style="ellipse;whiteSpace=wrap;html=1;" vertex="1" parent="1">
          <mxGeometry x="-1400" y="-490" width="70" height="40" as="geometry" />
        </mxCell>
        <mxCell id="kVk2CVBrEdljPfK9iVD8-26" style="edgeStyle=none;shape=connector;rounded=0;orthogonalLoop=1;jettySize=auto;html=1;exitX=1;exitY=0;exitDx=0;exitDy=0;entryX=0.178;entryY=0.996;entryDx=0;entryDy=0;entryPerimeter=0;labelBackgroundColor=default;strokeColor=default;align=center;verticalAlign=middle;fontFamily=Helvetica;fontSize=11;fontColor=default;endArrow=none;" edge="1" parent="1" source="kVk2CVBrEdljPfK9iVD8-19" target="kVk2CVBrEdljPfK9iVD8-7">
          <mxGeometry relative="1" as="geometry" />
        </mxCell>
        <mxCell id="kVk2CVBrEdljPfK9iVD8-93" style="edgeStyle=none;shape=connector;rounded=0;orthogonalLoop=1;jettySize=auto;html=1;exitX=0.5;exitY=1;exitDx=0;exitDy=0;entryX=0.5;entryY=0;entryDx=0;entryDy=0;labelBackgroundColor=default;strokeColor=default;align=center;verticalAlign=middle;fontFamily=Helvetica;fontSize=11;fontColor=default;endArrow=none;" edge="1" parent="1" source="kVk2CVBrEdljPfK9iVD8-27" target="kVk2CVBrEdljPfK9iVD8-92">
          <mxGeometry relative="1" as="geometry" />
        </mxCell>
        <mxCell id="kVk2CVBrEdljPfK9iVD8-101" style="edgeStyle=none;shape=connector;rounded=0;orthogonalLoop=1;jettySize=auto;html=1;exitX=1;exitY=0.5;exitDx=0;exitDy=0;entryX=0;entryY=0.5;entryDx=0;entryDy=0;labelBackgroundColor=default;strokeColor=default;align=center;verticalAlign=middle;fontFamily=Helvetica;fontSize=11;fontColor=default;endArrow=none;" edge="1" parent="1" source="kVk2CVBrEdljPfK9iVD8-27" target="kVk2CVBrEdljPfK9iVD8-99">
          <mxGeometry relative="1" as="geometry" />
        </mxCell>
        <mxCell id="kVk2CVBrEdljPfK9iVD8-142" style="edgeStyle=none;shape=connector;rounded=0;orthogonalLoop=1;jettySize=auto;html=1;exitX=1;exitY=1;exitDx=0;exitDy=0;labelBackgroundColor=default;strokeColor=default;align=center;verticalAlign=middle;fontFamily=Helvetica;fontSize=11;fontColor=default;endArrow=none;" edge="1" parent="1" source="kVk2CVBrEdljPfK9iVD8-27" target="kVk2CVBrEdljPfK9iVD8-141">
          <mxGeometry relative="1" as="geometry" />
        </mxCell>
        <mxCell id="kVk2CVBrEdljPfK9iVD8-27" value="商品" style="rounded=1;whiteSpace=wrap;html=1;" vertex="1" parent="1">
          <mxGeometry x="-780" y="-580" width="120" height="60" as="geometry" />
        </mxCell>
        <mxCell id="kVk2CVBrEdljPfK9iVD8-39" style="edgeStyle=none;shape=connector;rounded=0;orthogonalLoop=1;jettySize=auto;html=1;exitX=0.5;exitY=1;exitDx=0;exitDy=0;entryX=0.5;entryY=0;entryDx=0;entryDy=0;labelBackgroundColor=default;strokeColor=default;align=center;verticalAlign=middle;fontFamily=Helvetica;fontSize=11;fontColor=default;endArrow=none;" edge="1" parent="1" source="kVk2CVBrEdljPfK9iVD8-28" target="kVk2CVBrEdljPfK9iVD8-27">
          <mxGeometry relative="1" as="geometry" />
        </mxCell>
        <mxCell id="kVk2CVBrEdljPfK9iVD8-28" value="供货商" style="ellipse;whiteSpace=wrap;html=1;" vertex="1" parent="1">
          <mxGeometry x="-670" y="-750" width="70" height="40" as="geometry" />
        </mxCell>
        <mxCell id="kVk2CVBrEdljPfK9iVD8-41" style="edgeStyle=none;shape=connector;rounded=0;orthogonalLoop=1;jettySize=auto;html=1;exitX=0.5;exitY=1;exitDx=0;exitDy=0;labelBackgroundColor=default;strokeColor=default;align=center;verticalAlign=middle;fontFamily=Helvetica;fontSize=11;fontColor=default;endArrow=none;" edge="1" parent="1" source="kVk2CVBrEdljPfK9iVD8-29" target="kVk2CVBrEdljPfK9iVD8-27">
          <mxGeometry relative="1" as="geometry" />
        </mxCell>
        <mxCell id="kVk2CVBrEdljPfK9iVD8-29" value="销售单价" style="ellipse;whiteSpace=wrap;html=1;" vertex="1" parent="1">
          <mxGeometry x="-580" y="-740" width="70" height="40" as="geometry" />
        </mxCell>
        <mxCell id="kVk2CVBrEdljPfK9iVD8-38" style="edgeStyle=none;shape=connector;rounded=0;orthogonalLoop=1;jettySize=auto;html=1;exitX=0.5;exitY=1;exitDx=0;exitDy=0;entryX=0.25;entryY=0;entryDx=0;entryDy=0;labelBackgroundColor=default;strokeColor=default;align=center;verticalAlign=middle;fontFamily=Helvetica;fontSize=11;fontColor=default;endArrow=none;" edge="1" parent="1" source="kVk2CVBrEdljPfK9iVD8-30" target="kVk2CVBrEdljPfK9iVD8-27">
          <mxGeometry relative="1" as="geometry" />
        </mxCell>
        <mxCell id="kVk2CVBrEdljPfK9iVD8-30" value="单件成本" style="ellipse;whiteSpace=wrap;html=1;" vertex="1" parent="1">
          <mxGeometry x="-830" y="-720" width="70" height="40" as="geometry" />
        </mxCell>
        <mxCell id="kVk2CVBrEdljPfK9iVD8-37" style="edgeStyle=none;shape=connector;rounded=0;orthogonalLoop=1;jettySize=auto;html=1;exitX=0.5;exitY=1;exitDx=0;exitDy=0;labelBackgroundColor=default;strokeColor=default;align=center;verticalAlign=middle;fontFamily=Helvetica;fontSize=11;fontColor=default;endArrow=none;" edge="1" parent="1" source="kVk2CVBrEdljPfK9iVD8-31" target="kVk2CVBrEdljPfK9iVD8-27">
          <mxGeometry relative="1" as="geometry" />
        </mxCell>
        <mxCell id="kVk2CVBrEdljPfK9iVD8-31" value="商品类别" style="ellipse;whiteSpace=wrap;html=1;" vertex="1" parent="1">
          <mxGeometry x="-755" y="-750" width="70" height="40" as="geometry" />
        </mxCell>
        <mxCell id="kVk2CVBrEdljPfK9iVD8-32" value="商品名称" style="ellipse;whiteSpace=wrap;html=1;" vertex="1" parent="1">
          <mxGeometry x="-890" y="-680" width="70" height="40" as="geometry" />
        </mxCell>
        <mxCell id="kVk2CVBrEdljPfK9iVD8-35" style="edgeStyle=none;shape=connector;rounded=0;orthogonalLoop=1;jettySize=auto;html=1;exitX=1;exitY=0.5;exitDx=0;exitDy=0;labelBackgroundColor=default;strokeColor=default;align=center;verticalAlign=middle;fontFamily=Helvetica;fontSize=11;fontColor=default;endArrow=none;entryX=0;entryY=0.25;entryDx=0;entryDy=0;" edge="1" parent="1" source="kVk2CVBrEdljPfK9iVD8-33" target="kVk2CVBrEdljPfK9iVD8-27">
          <mxGeometry relative="1" as="geometry">
            <mxPoint x="-780" y="-550" as="targetPoint" />
          </mxGeometry>
        </mxCell>
        <mxCell id="kVk2CVBrEdljPfK9iVD8-33" value="商品编号" style="ellipse;whiteSpace=wrap;html=1;" vertex="1" parent="1">
          <mxGeometry x="-910" y="-630" width="70" height="40" as="geometry" />
        </mxCell>
        <mxCell id="kVk2CVBrEdljPfK9iVD8-42" value="会员" style="rounded=1;whiteSpace=wrap;html=1;" vertex="1" parent="1">
          <mxGeometry x="-490" y="-590" width="120" height="60" as="geometry" />
        </mxCell>
        <mxCell id="kVk2CVBrEdljPfK9iVD8-43" value="累计金额" style="ellipse;whiteSpace=wrap;html=1;" vertex="1" parent="1">
          <mxGeometry x="-290" y="-510" width="70" height="40" as="geometry" />
        </mxCell>
        <mxCell id="kVk2CVBrEdljPfK9iVD8-53" value="" style="edgeStyle=none;shape=connector;rounded=0;orthogonalLoop=1;jettySize=auto;html=1;labelBackgroundColor=default;strokeColor=default;align=center;verticalAlign=middle;fontFamily=Helvetica;fontSize=11;fontColor=default;endArrow=none;" edge="1" parent="1" source="kVk2CVBrEdljPfK9iVD8-44" target="kVk2CVBrEdljPfK9iVD8-42">
          <mxGeometry relative="1" as="geometry" />
        </mxCell>
        <mxCell id="kVk2CVBrEdljPfK9iVD8-44" value="余额" style="ellipse;whiteSpace=wrap;html=1;" vertex="1" parent="1">
          <mxGeometry x="-290" y="-570" width="70" height="40" as="geometry" />
        </mxCell>
        <mxCell id="kVk2CVBrEdljPfK9iVD8-52" style="edgeStyle=none;shape=connector;rounded=0;orthogonalLoop=1;jettySize=auto;html=1;exitX=0;exitY=0.5;exitDx=0;exitDy=0;entryX=1;entryY=0.25;entryDx=0;entryDy=0;labelBackgroundColor=default;strokeColor=default;align=center;verticalAlign=middle;fontFamily=Helvetica;fontSize=11;fontColor=default;endArrow=none;" edge="1" parent="1" source="kVk2CVBrEdljPfK9iVD8-45" target="kVk2CVBrEdljPfK9iVD8-42">
          <mxGeometry relative="1" as="geometry" />
        </mxCell>
        <mxCell id="kVk2CVBrEdljPfK9iVD8-45" value="电话" style="ellipse;whiteSpace=wrap;html=1;" vertex="1" parent="1">
          <mxGeometry x="-300" y="-620" width="70" height="40" as="geometry" />
        </mxCell>
        <mxCell id="kVk2CVBrEdljPfK9iVD8-51" style="edgeStyle=none;shape=connector;rounded=0;orthogonalLoop=1;jettySize=auto;html=1;exitX=0.5;exitY=1;exitDx=0;exitDy=0;entryX=0.841;entryY=0.021;entryDx=0;entryDy=0;labelBackgroundColor=default;strokeColor=default;align=center;verticalAlign=middle;fontFamily=Helvetica;fontSize=11;fontColor=default;endArrow=none;entryPerimeter=0;" edge="1" parent="1" source="kVk2CVBrEdljPfK9iVD8-46" target="kVk2CVBrEdljPfK9iVD8-42">
          <mxGeometry relative="1" as="geometry" />
        </mxCell>
        <mxCell id="kVk2CVBrEdljPfK9iVD8-46" value="注册日期" style="ellipse;whiteSpace=wrap;html=1;" vertex="1" parent="1">
          <mxGeometry x="-330" y="-690" width="70" height="40" as="geometry" />
        </mxCell>
        <mxCell id="kVk2CVBrEdljPfK9iVD8-47" value="会员姓名" style="ellipse;whiteSpace=wrap;html=1;" vertex="1" parent="1">
          <mxGeometry x="-410" y="-720" width="70" height="40" as="geometry" />
        </mxCell>
        <mxCell id="kVk2CVBrEdljPfK9iVD8-49" style="edgeStyle=none;shape=connector;rounded=0;orthogonalLoop=1;jettySize=auto;html=1;exitX=0.5;exitY=1;exitDx=0;exitDy=0;labelBackgroundColor=default;strokeColor=default;align=center;verticalAlign=middle;fontFamily=Helvetica;fontSize=11;fontColor=default;endArrow=none;" edge="1" parent="1" source="kVk2CVBrEdljPfK9iVD8-48" target="kVk2CVBrEdljPfK9iVD8-42">
          <mxGeometry relative="1" as="geometry" />
        </mxCell>
        <mxCell id="kVk2CVBrEdljPfK9iVD8-48" value="会员卡号" style="ellipse;whiteSpace=wrap;html=1;" vertex="1" parent="1">
          <mxGeometry x="-500" y="-720" width="70" height="40" as="geometry" />
        </mxCell>
        <mxCell id="kVk2CVBrEdljPfK9iVD8-50" style="edgeStyle=none;shape=connector;rounded=0;orthogonalLoop=1;jettySize=auto;html=1;exitX=0.5;exitY=1;exitDx=0;exitDy=0;entryX=0.613;entryY=0.021;entryDx=0;entryDy=0;entryPerimeter=0;labelBackgroundColor=default;strokeColor=default;align=center;verticalAlign=middle;fontFamily=Helvetica;fontSize=11;fontColor=default;endArrow=none;" edge="1" parent="1" source="kVk2CVBrEdljPfK9iVD8-47" target="kVk2CVBrEdljPfK9iVD8-42">
          <mxGeometry relative="1" as="geometry" />
        </mxCell>
        <mxCell id="kVk2CVBrEdljPfK9iVD8-54" style="edgeStyle=none;shape=connector;rounded=0;orthogonalLoop=1;jettySize=auto;html=1;exitX=0;exitY=0.5;exitDx=0;exitDy=0;entryX=0.823;entryY=1.033;entryDx=0;entryDy=0;entryPerimeter=0;labelBackgroundColor=default;strokeColor=default;align=center;verticalAlign=middle;fontFamily=Helvetica;fontSize=11;fontColor=default;endArrow=none;" edge="1" parent="1" source="kVk2CVBrEdljPfK9iVD8-43" target="kVk2CVBrEdljPfK9iVD8-42">
          <mxGeometry relative="1" as="geometry" />
        </mxCell>
        <mxCell id="kVk2CVBrEdljPfK9iVD8-55" value="退货信息" style="rounded=1;whiteSpace=wrap;html=1;" vertex="1" parent="1">
          <mxGeometry x="-1242.5" y="-310" width="120" height="60" as="geometry" />
        </mxCell>
        <mxCell id="kVk2CVBrEdljPfK9iVD8-65" style="edgeStyle=none;shape=connector;rounded=0;orthogonalLoop=1;jettySize=auto;html=1;exitX=0.5;exitY=0;exitDx=0;exitDy=0;entryX=0.5;entryY=1;entryDx=0;entryDy=0;labelBackgroundColor=default;strokeColor=default;align=center;verticalAlign=middle;fontFamily=Helvetica;fontSize=11;fontColor=default;endArrow=none;" edge="1" parent="1" source="kVk2CVBrEdljPfK9iVD8-58" target="kVk2CVBrEdljPfK9iVD8-55">
          <mxGeometry relative="1" as="geometry" />
        </mxCell>
        <mxCell id="kVk2CVBrEdljPfK9iVD8-58" value="退货数量" style="ellipse;whiteSpace=wrap;html=1;" vertex="1" parent="1">
          <mxGeometry x="-1217.5" y="-200" width="70" height="40" as="geometry" />
        </mxCell>
        <mxCell id="kVk2CVBrEdljPfK9iVD8-64" style="edgeStyle=none;shape=connector;rounded=0;orthogonalLoop=1;jettySize=auto;html=1;exitX=0.5;exitY=0;exitDx=0;exitDy=0;entryX=0.25;entryY=1;entryDx=0;entryDy=0;labelBackgroundColor=default;strokeColor=default;align=center;verticalAlign=middle;fontFamily=Helvetica;fontSize=11;fontColor=default;endArrow=none;" edge="1" parent="1" source="kVk2CVBrEdljPfK9iVD8-59" target="kVk2CVBrEdljPfK9iVD8-55">
          <mxGeometry relative="1" as="geometry" />
        </mxCell>
        <mxCell id="kVk2CVBrEdljPfK9iVD8-59" value="商品编号" style="ellipse;whiteSpace=wrap;html=1;" vertex="1" parent="1">
          <mxGeometry x="-1312.5" y="-200" width="70" height="40" as="geometry" />
        </mxCell>
        <mxCell id="kVk2CVBrEdljPfK9iVD8-62" style="edgeStyle=none;shape=connector;rounded=0;orthogonalLoop=1;jettySize=auto;html=1;exitX=0;exitY=0.5;exitDx=0;exitDy=0;labelBackgroundColor=default;strokeColor=default;align=center;verticalAlign=middle;fontFamily=Helvetica;fontSize=11;fontColor=default;endArrow=none;" edge="1" parent="1" source="kVk2CVBrEdljPfK9iVD8-60" target="kVk2CVBrEdljPfK9iVD8-55">
          <mxGeometry relative="1" as="geometry" />
        </mxCell>
        <mxCell id="kVk2CVBrEdljPfK9iVD8-60" value="退货日期" style="ellipse;whiteSpace=wrap;html=1;" vertex="1" parent="1">
          <mxGeometry x="-1102.5" y="-300" width="70" height="40" as="geometry" />
        </mxCell>
        <mxCell id="kVk2CVBrEdljPfK9iVD8-63" style="edgeStyle=none;shape=connector;rounded=0;orthogonalLoop=1;jettySize=auto;html=1;exitX=1;exitY=0.5;exitDx=0;exitDy=0;entryX=0;entryY=0.5;entryDx=0;entryDy=0;labelBackgroundColor=default;strokeColor=default;align=center;verticalAlign=middle;fontFamily=Helvetica;fontSize=11;fontColor=default;endArrow=none;" edge="1" parent="1" source="kVk2CVBrEdljPfK9iVD8-61" target="kVk2CVBrEdljPfK9iVD8-55">
          <mxGeometry relative="1" as="geometry" />
        </mxCell>
        <mxCell id="kVk2CVBrEdljPfK9iVD8-61" value="交易流水号" style="ellipse;whiteSpace=wrap;html=1;" vertex="1" parent="1">
          <mxGeometry x="-1352.5" y="-300" width="70" height="40" as="geometry" />
        </mxCell>
        <mxCell id="kVk2CVBrEdljPfK9iVD8-66" value="退货金额" style="ellipse;whiteSpace=wrap;html=1;" vertex="1" parent="1">
          <mxGeometry x="-1122.5" y="-200" width="70" height="40" as="geometry" />
        </mxCell>
        <mxCell id="kVk2CVBrEdljPfK9iVD8-67" style="edgeStyle=none;shape=connector;rounded=0;orthogonalLoop=1;jettySize=auto;html=1;exitX=0.5;exitY=0;exitDx=0;exitDy=0;entryX=0.826;entryY=1.021;entryDx=0;entryDy=0;entryPerimeter=0;labelBackgroundColor=default;strokeColor=default;align=center;verticalAlign=middle;fontFamily=Helvetica;fontSize=11;fontColor=default;endArrow=none;" edge="1" parent="1" source="kVk2CVBrEdljPfK9iVD8-66" target="kVk2CVBrEdljPfK9iVD8-55">
          <mxGeometry relative="1" as="geometry" />
        </mxCell>
        <mxCell id="kVk2CVBrEdljPfK9iVD8-68" value="仓库" style="rounded=1;whiteSpace=wrap;html=1;" vertex="1" parent="1">
          <mxGeometry x="-945" y="-310" width="120" height="60" as="geometry" />
        </mxCell>
        <mxCell id="kVk2CVBrEdljPfK9iVD8-76" value="" style="edgeStyle=none;shape=connector;rounded=0;orthogonalLoop=1;jettySize=auto;html=1;labelBackgroundColor=default;strokeColor=default;align=center;verticalAlign=middle;fontFamily=Helvetica;fontSize=11;fontColor=default;endArrow=none;" edge="1" parent="1" source="kVk2CVBrEdljPfK9iVD8-71" target="kVk2CVBrEdljPfK9iVD8-68">
          <mxGeometry relative="1" as="geometry" />
        </mxCell>
        <mxCell id="kVk2CVBrEdljPfK9iVD8-71" value="仓库地址" style="ellipse;whiteSpace=wrap;html=1;" vertex="1" parent="1">
          <mxGeometry x="-840" y="-230" width="70" height="40" as="geometry" />
        </mxCell>
        <mxCell id="kVk2CVBrEdljPfK9iVD8-72" value="仓库名称" style="ellipse;whiteSpace=wrap;html=1;" vertex="1" parent="1">
          <mxGeometry x="-910" y="-210" width="70" height="40" as="geometry" />
        </mxCell>
        <mxCell id="kVk2CVBrEdljPfK9iVD8-73" value="仓库编号" style="ellipse;whiteSpace=wrap;html=1;" vertex="1" parent="1">
          <mxGeometry x="-980" y="-215" width="70" height="40" as="geometry" />
        </mxCell>
        <mxCell id="kVk2CVBrEdljPfK9iVD8-74" style="edgeStyle=none;shape=connector;rounded=0;orthogonalLoop=1;jettySize=auto;html=1;exitX=0.5;exitY=0;exitDx=0;exitDy=0;entryX=0.25;entryY=1;entryDx=0;entryDy=0;labelBackgroundColor=default;strokeColor=default;align=center;verticalAlign=middle;fontFamily=Helvetica;fontSize=11;fontColor=default;endArrow=none;" edge="1" parent="1" source="kVk2CVBrEdljPfK9iVD8-73" target="kVk2CVBrEdljPfK9iVD8-68">
          <mxGeometry relative="1" as="geometry">
            <mxPoint x="-930.5077057814317" y="-224.2871716274983" as="sourcePoint" />
          </mxGeometry>
        </mxCell>
        <mxCell id="kVk2CVBrEdljPfK9iVD8-77" style="edgeStyle=none;shape=connector;rounded=0;orthogonalLoop=1;jettySize=auto;html=1;exitX=0.5;exitY=0;exitDx=0;exitDy=0;entryX=0.59;entryY=0.984;entryDx=0;entryDy=0;entryPerimeter=0;labelBackgroundColor=default;strokeColor=default;align=center;verticalAlign=middle;fontFamily=Helvetica;fontSize=11;fontColor=default;endArrow=none;" edge="1" parent="1" source="kVk2CVBrEdljPfK9iVD8-72" target="kVk2CVBrEdljPfK9iVD8-68">
          <mxGeometry relative="1" as="geometry" />
        </mxCell>
        <mxCell id="kVk2CVBrEdljPfK9iVD8-85" style="edgeStyle=none;shape=connector;rounded=0;orthogonalLoop=1;jettySize=auto;html=1;exitX=0.5;exitY=1;exitDx=0;exitDy=0;entryX=0.5;entryY=0;entryDx=0;entryDy=0;labelBackgroundColor=default;strokeColor=default;align=center;verticalAlign=middle;fontFamily=Helvetica;fontSize=11;fontColor=default;endArrow=none;" edge="1" parent="1" source="kVk2CVBrEdljPfK9iVD8-78" target="kVk2CVBrEdljPfK9iVD8-80">
          <mxGeometry relative="1" as="geometry" />
        </mxCell>
        <mxCell id="kVk2CVBrEdljPfK9iVD8-86" style="edgeStyle=none;shape=connector;rounded=0;orthogonalLoop=1;jettySize=auto;html=1;exitX=0.75;exitY=0;exitDx=0;exitDy=0;entryX=0;entryY=1;entryDx=0;entryDy=0;labelBackgroundColor=default;strokeColor=default;align=center;verticalAlign=middle;fontFamily=Helvetica;fontSize=11;fontColor=default;endArrow=none;" edge="1" parent="1" source="kVk2CVBrEdljPfK9iVD8-78" target="kVk2CVBrEdljPfK9iVD8-81">
          <mxGeometry relative="1" as="geometry" />
        </mxCell>
        <mxCell id="kVk2CVBrEdljPfK9iVD8-108" style="edgeStyle=none;shape=connector;rounded=0;orthogonalLoop=1;jettySize=auto;html=1;exitX=0.75;exitY=1;exitDx=0;exitDy=0;entryX=0;entryY=0;entryDx=0;entryDy=0;labelBackgroundColor=default;strokeColor=default;align=center;verticalAlign=middle;fontFamily=Helvetica;fontSize=11;fontColor=default;endArrow=none;" edge="1" parent="1" source="kVk2CVBrEdljPfK9iVD8-78" target="kVk2CVBrEdljPfK9iVD8-82">
          <mxGeometry relative="1" as="geometry" />
        </mxCell>
        <mxCell id="kVk2CVBrEdljPfK9iVD8-78" value="供货商" style="rounded=1;whiteSpace=wrap;html=1;" vertex="1" parent="1">
          <mxGeometry x="-730" y="-315" width="120" height="60" as="geometry" />
        </mxCell>
        <mxCell id="kVk2CVBrEdljPfK9iVD8-79" value="地址" style="ellipse;whiteSpace=wrap;html=1;" vertex="1" parent="1">
          <mxGeometry x="-760" y="-225" width="70" height="40" as="geometry" />
        </mxCell>
        <mxCell id="kVk2CVBrEdljPfK9iVD8-80" value="电话" style="ellipse;whiteSpace=wrap;html=1;" vertex="1" parent="1">
          <mxGeometry x="-680" y="-210" width="70" height="40" as="geometry" />
        </mxCell>
        <mxCell id="kVk2CVBrEdljPfK9iVD8-81" value="供货商名称" style="ellipse;whiteSpace=wrap;html=1;" vertex="1" parent="1">
          <mxGeometry x="-630" y="-370" width="70" height="40" as="geometry" />
        </mxCell>
        <mxCell id="kVk2CVBrEdljPfK9iVD8-82" value="供货商编号" style="ellipse;whiteSpace=wrap;html=1;" vertex="1" parent="1">
          <mxGeometry x="-600" y="-230" width="70" height="40" as="geometry" />
        </mxCell>
        <mxCell id="kVk2CVBrEdljPfK9iVD8-84" style="edgeStyle=none;shape=connector;rounded=0;orthogonalLoop=1;jettySize=auto;html=1;exitX=0.5;exitY=0;exitDx=0;exitDy=0;entryX=0.178;entryY=1.009;entryDx=0;entryDy=0;entryPerimeter=0;labelBackgroundColor=default;strokeColor=default;align=center;verticalAlign=middle;fontFamily=Helvetica;fontSize=11;fontColor=default;endArrow=none;" edge="1" parent="1" source="kVk2CVBrEdljPfK9iVD8-79" target="kVk2CVBrEdljPfK9iVD8-78">
          <mxGeometry relative="1" as="geometry" />
        </mxCell>
        <mxCell id="kVk2CVBrEdljPfK9iVD8-90" style="edgeStyle=none;shape=connector;rounded=0;orthogonalLoop=1;jettySize=auto;html=1;exitX=0.5;exitY=1;exitDx=0;exitDy=0;entryX=0.5;entryY=0;entryDx=0;entryDy=0;labelBackgroundColor=default;strokeColor=default;align=center;verticalAlign=middle;fontFamily=Helvetica;fontSize=11;fontColor=default;endArrow=none;" edge="1" parent="1" source="kVk2CVBrEdljPfK9iVD8-88" target="kVk2CVBrEdljPfK9iVD8-55">
          <mxGeometry relative="1" as="geometry" />
        </mxCell>
        <mxCell id="kVk2CVBrEdljPfK9iVD8-88" value="处理" style="rhombus;whiteSpace=wrap;html=1;fontFamily=Helvetica;fontSize=11;fontColor=default;" vertex="1" parent="1">
          <mxGeometry x="-1215" y="-430" width="65" height="70" as="geometry" />
        </mxCell>
        <mxCell id="kVk2CVBrEdljPfK9iVD8-144" value="" style="edgeStyle=none;shape=connector;rounded=0;orthogonalLoop=1;jettySize=auto;html=1;labelBackgroundColor=default;strokeColor=default;align=center;verticalAlign=middle;fontFamily=Helvetica;fontSize=11;fontColor=default;endArrow=none;" edge="1" parent="1" source="kVk2CVBrEdljPfK9iVD8-92" target="kVk2CVBrEdljPfK9iVD8-68">
          <mxGeometry relative="1" as="geometry" />
        </mxCell>
        <mxCell id="kVk2CVBrEdljPfK9iVD8-92" value="处理" style="rhombus;whiteSpace=wrap;html=1;fontFamily=Helvetica;fontSize=11;fontColor=default;rotation=30;" vertex="1" parent="1">
          <mxGeometry x="-820" y="-460" width="65" height="70" as="geometry" />
        </mxCell>
        <mxCell id="kVk2CVBrEdljPfK9iVD8-97" style="edgeStyle=none;shape=connector;rounded=0;orthogonalLoop=1;jettySize=auto;html=1;exitX=1;exitY=0.5;exitDx=0;exitDy=0;entryX=0;entryY=0.5;entryDx=0;entryDy=0;labelBackgroundColor=default;strokeColor=default;align=center;verticalAlign=middle;fontFamily=Helvetica;fontSize=11;fontColor=default;endArrow=none;" edge="1" parent="1" source="kVk2CVBrEdljPfK9iVD8-95" target="kVk2CVBrEdljPfK9iVD8-27">
          <mxGeometry relative="1" as="geometry" />
        </mxCell>
        <mxCell id="kVk2CVBrEdljPfK9iVD8-95" value="售卖" style="rhombus;whiteSpace=wrap;html=1;fontFamily=Helvetica;fontSize=11;fontColor=default;" vertex="1" parent="1">
          <mxGeometry x="-955" y="-580" width="65" height="70" as="geometry" />
        </mxCell>
        <mxCell id="kVk2CVBrEdljPfK9iVD8-98" style="edgeStyle=none;shape=connector;rounded=0;orthogonalLoop=1;jettySize=auto;html=1;exitX=1;exitY=1;exitDx=0;exitDy=0;entryX=0.114;entryY=0.049;entryDx=0;entryDy=0;entryPerimeter=0;labelBackgroundColor=default;strokeColor=default;align=center;verticalAlign=middle;fontFamily=Helvetica;fontSize=11;fontColor=default;endArrow=none;" edge="1" parent="1" source="kVk2CVBrEdljPfK9iVD8-32" target="kVk2CVBrEdljPfK9iVD8-27">
          <mxGeometry relative="1" as="geometry" />
        </mxCell>
        <mxCell id="kVk2CVBrEdljPfK9iVD8-146" style="edgeStyle=none;shape=connector;rounded=0;orthogonalLoop=1;jettySize=auto;html=1;exitX=1;exitY=0.5;exitDx=0;exitDy=0;entryX=0;entryY=0.5;entryDx=0;entryDy=0;labelBackgroundColor=default;strokeColor=default;align=center;verticalAlign=middle;fontFamily=Helvetica;fontSize=11;fontColor=default;endArrow=none;" edge="1" parent="1" source="kVk2CVBrEdljPfK9iVD8-99" target="kVk2CVBrEdljPfK9iVD8-42">
          <mxGeometry relative="1" as="geometry" />
        </mxCell>
        <mxCell id="kVk2CVBrEdljPfK9iVD8-99" value="购买" style="rhombus;whiteSpace=wrap;html=1;fontFamily=Helvetica;fontSize=11;fontColor=default;" vertex="1" parent="1">
          <mxGeometry x="-595" y="-590" width="65" height="70" as="geometry" />
        </mxCell>
        <mxCell id="kVk2CVBrEdljPfK9iVD8-111" style="edgeStyle=none;shape=connector;rounded=0;orthogonalLoop=1;jettySize=auto;html=1;exitX=0.5;exitY=1;exitDx=0;exitDy=0;entryX=0.25;entryY=0;entryDx=0;entryDy=0;labelBackgroundColor=default;strokeColor=default;align=center;verticalAlign=middle;fontFamily=Helvetica;fontSize=11;fontColor=default;endArrow=none;" edge="1" parent="1" source="kVk2CVBrEdljPfK9iVD8-103" target="kVk2CVBrEdljPfK9iVD8-78">
          <mxGeometry relative="1" as="geometry" />
        </mxCell>
        <mxCell id="kVk2CVBrEdljPfK9iVD8-103" value="供货" style="rhombus;whiteSpace=wrap;html=1;fontFamily=Helvetica;fontSize=11;fontColor=default;rotation=0;" vertex="1" parent="1">
          <mxGeometry x="-735" y="-450" width="65" height="70" as="geometry" />
        </mxCell>
        <mxCell id="kVk2CVBrEdljPfK9iVD8-104" style="edgeStyle=none;shape=connector;rounded=0;orthogonalLoop=1;jettySize=auto;html=1;exitX=0.5;exitY=0;exitDx=0;exitDy=0;entryX=0.66;entryY=1.044;entryDx=0;entryDy=0;entryPerimeter=0;labelBackgroundColor=default;strokeColor=default;align=center;verticalAlign=middle;fontFamily=Helvetica;fontSize=11;fontColor=default;endArrow=none;" edge="1" parent="1" source="kVk2CVBrEdljPfK9iVD8-103" target="kVk2CVBrEdljPfK9iVD8-27">
          <mxGeometry relative="1" as="geometry" />
        </mxCell>
        <mxCell id="kVk2CVBrEdljPfK9iVD8-120" style="edgeStyle=none;shape=connector;rounded=0;orthogonalLoop=1;jettySize=auto;html=1;exitX=0.5;exitY=1;exitDx=0;exitDy=0;entryX=0.5;entryY=0;entryDx=0;entryDy=0;labelBackgroundColor=default;strokeColor=default;align=center;verticalAlign=middle;fontFamily=Helvetica;fontSize=11;fontColor=default;endArrow=none;" edge="1" parent="1" source="kVk2CVBrEdljPfK9iVD8-112" target="kVk2CVBrEdljPfK9iVD8-119">
          <mxGeometry relative="1" as="geometry" />
        </mxCell>
        <mxCell id="kVk2CVBrEdljPfK9iVD8-112" value="部门" style="rounded=1;whiteSpace=wrap;html=1;" vertex="1" parent="1">
          <mxGeometry x="-1255" y="-740" width="120" height="60" as="geometry" />
        </mxCell>
        <mxCell id="kVk2CVBrEdljPfK9iVD8-122" style="edgeStyle=none;shape=connector;rounded=0;orthogonalLoop=1;jettySize=auto;html=1;exitX=1;exitY=1;exitDx=0;exitDy=0;entryX=0;entryY=0.75;entryDx=0;entryDy=0;labelBackgroundColor=default;strokeColor=default;align=center;verticalAlign=middle;fontFamily=Helvetica;fontSize=11;fontColor=default;endArrow=none;" edge="1" parent="1" source="kVk2CVBrEdljPfK9iVD8-114" target="kVk2CVBrEdljPfK9iVD8-112">
          <mxGeometry relative="1" as="geometry" />
        </mxCell>
        <mxCell id="kVk2CVBrEdljPfK9iVD8-114" value="部门编号" style="ellipse;whiteSpace=wrap;html=1;" vertex="1" parent="1">
          <mxGeometry x="-1400" y="-750" width="70" height="40" as="geometry" />
        </mxCell>
        <mxCell id="kVk2CVBrEdljPfK9iVD8-123" style="edgeStyle=none;shape=connector;rounded=0;orthogonalLoop=1;jettySize=auto;html=1;exitX=0.5;exitY=1;exitDx=0;exitDy=0;labelBackgroundColor=default;strokeColor=default;align=center;verticalAlign=middle;fontFamily=Helvetica;fontSize=11;fontColor=default;endArrow=none;entryX=0.014;entryY=0.379;entryDx=0;entryDy=0;entryPerimeter=0;" edge="1" parent="1" source="kVk2CVBrEdljPfK9iVD8-115" target="kVk2CVBrEdljPfK9iVD8-112">
          <mxGeometry relative="1" as="geometry">
            <mxPoint x="-1260" y="-720" as="targetPoint" />
          </mxGeometry>
        </mxCell>
        <mxCell id="kVk2CVBrEdljPfK9iVD8-115" value="部门职责" style="ellipse;whiteSpace=wrap;html=1;" vertex="1" parent="1">
          <mxGeometry x="-1370" y="-810" width="70" height="40" as="geometry" />
        </mxCell>
        <mxCell id="kVk2CVBrEdljPfK9iVD8-124" style="edgeStyle=none;shape=connector;rounded=0;orthogonalLoop=1;jettySize=auto;html=1;exitX=0.5;exitY=1;exitDx=0;exitDy=0;entryX=0.25;entryY=0;entryDx=0;entryDy=0;labelBackgroundColor=default;strokeColor=default;align=center;verticalAlign=middle;fontFamily=Helvetica;fontSize=11;fontColor=default;endArrow=none;" edge="1" parent="1" source="kVk2CVBrEdljPfK9iVD8-116" target="kVk2CVBrEdljPfK9iVD8-112">
          <mxGeometry relative="1" as="geometry" />
        </mxCell>
        <mxCell id="kVk2CVBrEdljPfK9iVD8-116" value="部门负责人" style="ellipse;whiteSpace=wrap;html=1;" vertex="1" parent="1">
          <mxGeometry x="-1295" y="-830" width="70" height="40" as="geometry" />
        </mxCell>
        <mxCell id="kVk2CVBrEdljPfK9iVD8-118" value="部门名称" style="ellipse;whiteSpace=wrap;html=1;" vertex="1" parent="1">
          <mxGeometry x="-1205" y="-840" width="70" height="40" as="geometry" />
        </mxCell>
        <mxCell id="kVk2CVBrEdljPfK9iVD8-119" value="处理" style="rhombus;whiteSpace=wrap;html=1;fontFamily=Helvetica;fontSize=11;fontColor=default;" vertex="1" parent="1">
          <mxGeometry x="-1225" y="-660" width="65" height="70" as="geometry" />
        </mxCell>
        <mxCell id="kVk2CVBrEdljPfK9iVD8-121" style="edgeStyle=none;shape=connector;rounded=0;orthogonalLoop=1;jettySize=auto;html=1;exitX=0.5;exitY=1;exitDx=0;exitDy=0;entryX=0.428;entryY=0.027;entryDx=0;entryDy=0;entryPerimeter=0;labelBackgroundColor=default;strokeColor=default;align=center;verticalAlign=middle;fontFamily=Helvetica;fontSize=11;fontColor=default;endArrow=none;" edge="1" parent="1" source="kVk2CVBrEdljPfK9iVD8-119" target="kVk2CVBrEdljPfK9iVD8-7">
          <mxGeometry relative="1" as="geometry" />
        </mxCell>
        <mxCell id="kVk2CVBrEdljPfK9iVD8-127" style="edgeStyle=none;shape=connector;rounded=0;orthogonalLoop=1;jettySize=auto;html=1;exitX=0.5;exitY=1;exitDx=0;exitDy=0;entryX=0.575;entryY=-0.002;entryDx=0;entryDy=0;entryPerimeter=0;labelBackgroundColor=default;strokeColor=default;align=center;verticalAlign=middle;fontFamily=Helvetica;fontSize=11;fontColor=default;endArrow=none;" edge="1" parent="1" source="kVk2CVBrEdljPfK9iVD8-118" target="kVk2CVBrEdljPfK9iVD8-112">
          <mxGeometry relative="1" as="geometry" />
        </mxCell>
        <mxCell id="kVk2CVBrEdljPfK9iVD8-140" value="" style="edgeStyle=none;shape=connector;rounded=0;orthogonalLoop=1;jettySize=auto;html=1;labelBackgroundColor=default;strokeColor=default;align=center;verticalAlign=middle;fontFamily=Helvetica;fontSize=11;fontColor=default;endArrow=none;entryX=0;entryY=0.375;entryDx=0;entryDy=0;entryPerimeter=0;" edge="1" parent="1" source="kVk2CVBrEdljPfK9iVD8-130" target="kVk2CVBrEdljPfK9iVD8-135">
          <mxGeometry relative="1" as="geometry">
            <mxPoint x="-295" y="-280" as="targetPoint" />
          </mxGeometry>
        </mxCell>
        <mxCell id="kVk2CVBrEdljPfK9iVD8-130" value="销售记录" style="rounded=1;whiteSpace=wrap;html=1;" vertex="1" parent="1">
          <mxGeometry x="-465" y="-315" width="120" height="60" as="geometry" />
        </mxCell>
        <mxCell id="kVk2CVBrEdljPfK9iVD8-138" style="edgeStyle=none;shape=connector;rounded=0;orthogonalLoop=1;jettySize=auto;html=1;exitX=0;exitY=0;exitDx=0;exitDy=0;entryX=0.75;entryY=1;entryDx=0;entryDy=0;labelBackgroundColor=default;strokeColor=default;align=center;verticalAlign=middle;fontFamily=Helvetica;fontSize=11;fontColor=default;endArrow=none;" edge="1" parent="1" source="kVk2CVBrEdljPfK9iVD8-132" target="kVk2CVBrEdljPfK9iVD8-130">
          <mxGeometry relative="1" as="geometry" />
        </mxCell>
        <mxCell id="kVk2CVBrEdljPfK9iVD8-132" value="员工编号" style="ellipse;whiteSpace=wrap;html=1;" vertex="1" parent="1">
          <mxGeometry x="-345" y="-205" width="70" height="40" as="geometry" />
        </mxCell>
        <mxCell id="kVk2CVBrEdljPfK9iVD8-137" style="edgeStyle=none;shape=connector;rounded=0;orthogonalLoop=1;jettySize=auto;html=1;exitX=0.5;exitY=0;exitDx=0;exitDy=0;entryX=0.5;entryY=1;entryDx=0;entryDy=0;labelBackgroundColor=default;strokeColor=default;align=center;verticalAlign=middle;fontFamily=Helvetica;fontSize=11;fontColor=default;endArrow=none;" edge="1" parent="1" source="kVk2CVBrEdljPfK9iVD8-133" target="kVk2CVBrEdljPfK9iVD8-130">
          <mxGeometry relative="1" as="geometry" />
        </mxCell>
        <mxCell id="kVk2CVBrEdljPfK9iVD8-133" value="销售日期" style="ellipse;whiteSpace=wrap;html=1;" vertex="1" parent="1">
          <mxGeometry x="-435" y="-205" width="70" height="40" as="geometry" />
        </mxCell>
        <mxCell id="kVk2CVBrEdljPfK9iVD8-136" style="edgeStyle=none;shape=connector;rounded=0;orthogonalLoop=1;jettySize=auto;html=1;exitX=0.5;exitY=0;exitDx=0;exitDy=0;entryX=0.25;entryY=1;entryDx=0;entryDy=0;labelBackgroundColor=default;strokeColor=default;align=center;verticalAlign=middle;fontFamily=Helvetica;fontSize=11;fontColor=default;endArrow=none;" edge="1" parent="1" source="kVk2CVBrEdljPfK9iVD8-134" target="kVk2CVBrEdljPfK9iVD8-130">
          <mxGeometry relative="1" as="geometry" />
        </mxCell>
        <mxCell id="kVk2CVBrEdljPfK9iVD8-134" value="销售订单" style="ellipse;whiteSpace=wrap;html=1;" vertex="1" parent="1">
          <mxGeometry x="-505" y="-225" width="70" height="40" as="geometry" />
        </mxCell>
        <mxCell id="kVk2CVBrEdljPfK9iVD8-135" value="销售数量" style="ellipse;whiteSpace=wrap;html=1;" vertex="1" parent="1">
          <mxGeometry x="-300" y="-305" width="70" height="40" as="geometry" />
        </mxCell>
        <mxCell id="kVk2CVBrEdljPfK9iVD8-143" style="edgeStyle=none;shape=connector;rounded=0;orthogonalLoop=1;jettySize=auto;html=1;exitX=0.5;exitY=1;exitDx=0;exitDy=0;labelBackgroundColor=default;strokeColor=default;align=center;verticalAlign=middle;fontFamily=Helvetica;fontSize=11;fontColor=default;endArrow=none;entryX=0.5;entryY=0;entryDx=0;entryDy=0;" edge="1" parent="1" source="kVk2CVBrEdljPfK9iVD8-141" target="kVk2CVBrEdljPfK9iVD8-130">
          <mxGeometry relative="1" as="geometry">
            <mxPoint x="-330" y="-220" as="targetPoint" />
          </mxGeometry>
        </mxCell>
        <mxCell id="kVk2CVBrEdljPfK9iVD8-141" value="记录" style="rhombus;whiteSpace=wrap;html=1;fontFamily=Helvetica;fontSize=11;fontColor=default;rotation=-45;" vertex="1" parent="1">
          <mxGeometry x="-595" y="-460" width="65" height="70" as="geometry" />
        </mxCell>
      </root>
    </mxGraphModel>
  </diagram>
</mxfile>
